<svg width="64" height="64" viewBox="0 0 64 64" fill="none" xmlns="http://www.w3.org/2000/svg" aria-label="Gnomeo icon" role="img">
  <circle cx="32" cy="34" r="20" fill="#111827"/>
  <path d="M32 7c8 0 13 4 16 9 2 4 2 8 1 13-1-5-4-8-7-10-3-3-6-5-10-5s-7 2-10 5c-3 2-6 5-7 10-1-5-1-9 1-13 3-5 8-9 16-9Z" fill="#111827"/>
  <circle cx="26" cy="33" r="2.4" fill="#ffffff"/>
  <circle cx="38" cy="33" r="2.4" fill="#ffffff"/>
  <path d="M24 41c4 0 7 2 8 6 4-1 8-3 12-6" stroke="#ffffff" stroke-width="4.5" stroke-linecap="round" stroke-linejoin="round"/>
  <path d="M23 47c1 7 6 12 9 12 1-4 4-8 11-12" fill="#111827"/>
  <path d="M14 40c-4 2-7 6-7 10 0 5 5 10 14 12" stroke="#111827" stroke-width="4" stroke-linecap="round"/>
  <path d="M50 40c4 2 7 6 7 10 0 5-5 10-14 12" stroke="#111827" stroke-width="4" stroke-linecap="round"/>
</svg>
