<svg width="64" height="64" viewBox="0 0 64 64" fill="none" xmlns="http://www.w3.org/2000/svg" role="img" aria-label="Gnomeo icon">
  <rect width="64" height="64" fill="white"/>
  <path d="M14 20C16 11 23 7 32 7C41 7 48 11 50 20C46 18 41 16 35 16C30 16 27 17 24 20C21 17 18 16 13 16C12 16 13 18 14 20Z" fill="#111827"/>
  <path d="M15 36C15 28 20 23 28 22C29 22 30 22 30 23C30 24 29 25 28 25C23 25 19 28 19 33C19 38 24 42 31 44C32 44 33 45 33 46C33 47 32 48 31 48C21 48 15 42 15 36Z" fill="#111827"/>
  <path d="M49 36C49 42 43 48 33 48C32 48 31 47 31 46C31 45 32 44 33 44C40 42 45 38 45 33C45 28 41 25 36 25C35 25 34 24 34 23C34 22 35 22 36 22C44 23 49 28 49 36Z" fill="#111827"/>
  <circle cx="27" cy="30" r="3" fill="#111827"/>
  <circle cx="37" cy="30" r="3" fill="#111827"/>
  <path d="M28 39C30 40 31 42 31 44" stroke="#111827" stroke-width="3" stroke-linecap="round"/>
  <path d="M31 41L40 36" stroke="#111827" stroke-width="3" stroke-linecap="round"/>
  <path d="M24 46H40" stroke="#111827" stroke-width="3" stroke-linecap="round"/>
</svg>
