<svg width="640" height="640" viewBox="0 0 640 640" fill="none" xmlns="http://www.w3.org/2000/svg" role="img" aria-label="Gnomeo logo">
  <g transform="translate(0 12)">
    <path d="M319.5 84C257 84 214 117 192 167c-7 16-12 35-14 57 28-21 57-31 87-31 56 0 91 22 109 52 18-30 53-52 109-52 30 0 59 10 87 31-2-22-7-41-14-57-22-50-65-83-127.5-83Zm0 0c-22 0-41 9-57 24-3 3-5 8-4 14l23 130h76l23-130c1-6-1-11-4-14-16-15-35-24-57-24Z" fill="#111827"/>
    <ellipse cx="319.5" cy="240" rx="95" ry="79" fill="#ffffff"/>
    <circle cx="288" cy="233" r="14" fill="#111827"/>
    <circle cx="351" cy="233" r="14" fill="#111827"/>
    <path d="M286 290c11 0 21 7 25 17 17-5 35-14 58-24" stroke="#111827" stroke-width="17" stroke-linecap="round" stroke-linejoin="round"/>
    <path d="M282 308c4 28 20 50 38 60 11-18 17-40 50-61" fill="#111827"/>
    <path d="M189 320c-36 18-58 49-58 83 0 42 38 82 106 102" stroke="#111827" stroke-width="21" stroke-linecap="round"/>
    <path d="M451 320c36 18 58 49 58 83 0 42-38 82-106 102" stroke="#111827" stroke-width="21" stroke-linecap="round"/>
    <circle cx="172" cy="290" r="33" fill="#111827"/>
    <circle cx="468" cy="290" r="33" fill="#111827"/>
    <path d="M250 408c21 22 50 35 69 35 18 0 53-12 81-37" fill="#111827"/>
  </g>
  <text x="320" y="572" text-anchor="middle" fill="#111827" font-family="Inter, ui-sans-serif, system-ui, -apple-system, BlinkMacSystemFont, 'Segoe UI', sans-serif" font-size="96" font-weight="700" letter-spacing="-4">Gnomeo</text>
</svg>
