<svg width="1200" height="1200" viewBox="0 0 1200 1200" fill="none" xmlns="http://www.w3.org/2000/svg" role="img" aria-label="Gnomeo logo">
  <rect width="1200" height="1200" fill="white"/>
  <g transform="translate(0 40)">
    <!-- top hat / hair -->
    <path d="M309 322C323 215 393 150 503 122C561 107 639 107 697 122C807 150 877 215 891 322C843 287 787 264 721 264C659 264 623 282 600 304C577 282 541 264 479 264C413 264 357 287 309 322Z" fill="#111827"/>

    <!-- side ears / shoulders -->
    <path d="M309 549C272 573 240 613 240 655C240 711 288 749 358 770C375 775 388 789 388 807C388 827 371 842 350 842C268 842 184 786 184 688C184 610 237 551 309 549Z" fill="#111827"/>
    <path d="M891 549C963 551 1016 610 1016 688C1016 786 932 842 850 842C829 842 812 827 812 807C812 789 825 775 842 770C912 749 960 711 960 655C960 613 928 573 891 549Z" fill="#111827"/>

    <!-- body outline -->
    <path d="M411 542C411 451 477 388 567 377C582 376 594 377 600 382C606 377 618 376 633 377C723 388 789 451 789 542V824C789 915 717 984 600 984C483 984 411 915 411 824V542Z" fill="#111827"/>

    <!-- face -->
    <circle cx="600" cy="586" r="151" fill="white"/>
    <circle cx="555" cy="570" r="24" fill="#111827"/>
    <circle cx="645" cy="570" r="24" fill="#111827"/>

    <!-- hand / finger -->
    <path d="M512 744C513 715 537 694 563 694C580 694 595 703 603 717C631 705 661 690 698 671C717 661 740 667 750 684C760 701 754 723 735 733L642 779C634 783 625 784 617 782L594 841C585 864 560 877 535 873C501 868 478 835 483 802C486 781 496 762 512 744Z" fill="#111827"/>
    <path d="M547 690C557 649 580 616 600 616C620 616 643 649 653 690" stroke="#111827" stroke-width="30" stroke-linecap="round" stroke-linejoin="round"/>

    <!-- mouth -->
    <path d="M492 862C532 904 579 930 600 930C621 930 668 904 708 862H492Z" fill="#111827"/>
    <path d="M480 851C509 884 552 905 600 905C648 905 691 884 720 851" stroke="#111827" stroke-width="20" stroke-linecap="round"/>

    <!-- wordmark -->
    <text x="600" y="1110" text-anchor="middle" fill="#111827" font-family="Inter, ui-sans-serif, system-ui, -apple-system, BlinkMacSystemFont, 'Segoe UI', sans-serif" font-size="128" font-weight="700" letter-spacing="-4">Gnomeo</text>
  </g>
</svg>
