<svg width="64" height="64" viewBox="0 0 64 64" fill="none" xmlns="http://www.w3.org/2000/svg" role="img" aria-label="Gnomeo">
  <path d="M17 31C17 22.2 24.2 15 33 15C41.8 15 49 22.2 49 31V45C49 50.5 44.5 55 39 55H27C21.5 55 17 50.5 17 45V31Z" fill="#F8FAFC"/>
  <path d="M20 31C20 22.6 26.8 16 35 16C41.9 16 47.6 20.3 49.5 26.4C45.9 25 42.4 24.2 39 24.2C31.6 24.2 25.2 27.1 20 31Z" fill="#172554"/>
  <path d="M20.5 27.5L26.5 18.5C27.4 17.1 29 16.2 30.7 16.2H39.2C40.6 16.2 41.8 17 42.4 18.2L45.5 24.1C41.6 22.7 37.8 22 34.1 22C29.1 22 24.5 23.2 20.5 27.5Z" fill="#0F172A"/>
  <circle cx="34" cy="34" r="9" fill="#F8E7CF"/>
  <path d="M26 34.5C26 42 30.3 49 38 55H29C24.6 55 21 51.4 21 47V41C21 37.8 23.2 35.1 26 34.5Z" fill="#E2E8F0"/>
  <path d="M32 16C34.6 16 36.7 18.1 36.7 20.7C36.7 22.2 36 23.6 34.9 24.4C34.2 24 33.4 23.8 32.5 23.8C31.5 23.8 30.6 24.1 29.8 24.7C28.9 23.9 28.4 22.6 28.4 21.2C28.4 18.3 30.3 16 32 16Z" fill="#F8FAFC"/>
  <circle cx="30" cy="31" r="1.3" fill="#172554"/>
  <circle cx="36" cy="31" r="1.3" fill="#172554"/>
  <path d="M31 36.2C32.5 37.3 33.9 37.3 35.4 36.2" stroke="#172554" stroke-width="1.5" stroke-linecap="round"/>
  <path d="M14 28C15.1 23.1 18 19.2 22 16.5" stroke="#94A3B8" stroke-width="1.8" stroke-linecap="round"/>
  <path d="M50 28C48.9 23.1 46 19.2 42 16.5" stroke="#94A3B8" stroke-width="1.8" stroke-linecap="round"/>
</svg>
